<?xml version="1.0" encoding="UTF-8" standalone="no"?>
<!-- Created with Inkscape (http://www.inkscape.org/) -->

<svg
   xmlns:dc="http://purl.org/dc/elements/1.1/"
   xmlns:cc="http://creativecommons.org/ns#"
   xmlns:rdf="http://www.w3.org/1999/02/22-rdf-syntax-ns#"
   xmlns:svg="http://www.w3.org/2000/svg"
   xmlns="http://www.w3.org/2000/svg"
   xmlns:xlink="http://www.w3.org/1999/xlink"
   xmlns:sodipodi="http://sodipodi.sourceforge.net/DTD/sodipodi-0.dtd"
   xmlns:inkscape="http://www.inkscape.org/namespaces/inkscape"
   width="256"
   height="256"
   id="svg2"
   version="1.1"
   inkscape:version="0.92.4 (5da689c313, 2019-01-14)"
   sodipodi:docname="headphone_256x256.svg">
  <defs
     id="defs4">
    <linearGradient
       inkscape:collect="always"
       id="linearGradient3867">
      <stop
         style="stop-color:#ffffff;stop-opacity:1;"
         offset="0"
         id="stop3869" />
      <stop
         style="stop-color:#ffffff;stop-opacity:0;"
         offset="1"
         id="stop3871" />
    </linearGradient>
    <linearGradient
       inkscape:collect="always"
       xlink:href="#linearGradient3867"
       id="linearGradient3209"
       gradientUnits="userSpaceOnUse"
       gradientTransform="translate(262.66244,130.88332)"
       x1="112.12693"
       y1="637.18945"
       x2="-144.45181"
       y2="893.76825" />
    <linearGradient
       inkscape:collect="always"
       xlink:href="#linearGradient3867-4"
       id="linearGradient3209-9"
       gradientUnits="userSpaceOnUse"
       gradientTransform="translate(262.66244,130.88332)"
       x1="112.12693"
       y1="637.18945"
       x2="-144.45181"
       y2="893.76825" />
    <linearGradient
       inkscape:collect="always"
       id="linearGradient3867-4">
      <stop
         style="stop-color:#ffffff;stop-opacity:1;"
         offset="0"
         id="stop3869-8" />
      <stop
         style="stop-color:#ffffff;stop-opacity:0;"
         offset="1"
         id="stop3871-8" />
    </linearGradient>
    <linearGradient
       y2="893.76825"
       x2="-144.45181"
       y1="637.18945"
       x1="112.12693"
       gradientTransform="translate(262.66244,130.88332)"
       gradientUnits="userSpaceOnUse"
       id="linearGradient3230"
       xlink:href="#linearGradient3867-4"
       inkscape:collect="always" />
    <linearGradient
       inkscape:collect="always"
       xlink:href="#linearGradient3867-4"
       id="linearGradient4031"
       gradientUnits="userSpaceOnUse"
       gradientTransform="translate(262.66244,130.88332)"
       x1="112.12693"
       y1="637.18945"
       x2="-144.45181"
       y2="893.76825" />
    <linearGradient
       inkscape:collect="always"
       xlink:href="#linearGradient3867-4"
       id="linearGradient4034"
       gradientUnits="userSpaceOnUse"
       gradientTransform="translate(507.81736,135.64982)"
       x1="112.12693"
       y1="637.18945"
       x2="-144.45181"
       y2="893.76825" />
    <linearGradient
       inkscape:collect="always"
       xlink:href="#linearGradient3867"
       id="linearGradient3327"
       gradientUnits="userSpaceOnUse"
       gradientTransform="translate(144.16244,158.88332)"
       x1="112.12693"
       y1="637.18945"
       x2="-144.45181"
       y2="893.76825" />
    <linearGradient
       inkscape:collect="always"
       xlink:href="#linearGradient3867-7"
       id="linearGradient3327-1"
       gradientUnits="userSpaceOnUse"
       gradientTransform="translate(79.46131,529.27171)"
       x1="112.12693"
       y1="637.18945"
       x2="-144.45181"
       y2="893.76825" />
    <linearGradient
       inkscape:collect="always"
       id="linearGradient3867-7">
      <stop
         style="stop-color:#ffffff;stop-opacity:1;"
         offset="0"
         id="stop3869-4" />
      <stop
         style="stop-color:#ffffff;stop-opacity:0;"
         offset="1"
         id="stop3871-0" />
    </linearGradient>
  </defs>
  <sodipodi:namedview
     id="base"
     pagecolor="#ffffff"
     bordercolor="#666666"
     borderopacity="1.0"
     inkscape:pageopacity="0.0"
     inkscape:pageshadow="2"
     inkscape:zoom="2.5908834"
     inkscape:cx="55.693409"
     inkscape:cy="135.34768"
     inkscape:document-units="px"
     inkscape:current-layer="layer1"
     showgrid="false"
     inkscape:window-width="1920"
     inkscape:window-height="1043"
     inkscape:window-x="1600"
     inkscape:window-y="0"
     inkscape:window-maximized="1" />
  <metadata
     id="metadata7">
    <rdf:RDF>
      <cc:Work
         rdf:about="">
        <dc:format>image/svg+xml</dc:format>
        <dc:type
           rdf:resource="http://purl.org/dc/dcmitype/StillImage" />
        <dc:title></dc:title>
      </cc:Work>
    </rdf:RDF>
  </metadata>
  <g
     inkscape:label="Layer 1"
     inkscape:groupmode="layer"
     id="layer1"
     transform="translate(0,-796.36218)">
    <path
       style="display:inline;fill:#ffffff;fill-opacity:1;stroke:none;stroke-width:1.4911989"
       d="M 127.95798,797.61033 C 57.274744,797.63713 2e-6,854.92114 2e-6,925.61022 c 0,32.08061 11.742042,61.44798 31.242106,83.91588 0.87174,1.0024 2.188398,1.6843 3.621046,1.6843 2.62575,0 4.71579,-2.1743 4.71579,-4.8 0,-0.6238 -0.11751,-1.2228 -0.33684,-1.7684 l -0.0421,-0.084 -12.000062,-54.18945 c -0.251148,-1.03013 -0.537204,-2.07397 -0.757901,-3.11587 -1.474289,-6.96047 -2.189468,-14.24393 -2.189468,-21.64206 0,-57.29231 46.418991,-103.72034 103.705357,-103.74733 h 0.0421 c 57.28619,0.0268 103.74736,46.45502 103.74736,103.74733 0,7.39813 -0.7575,14.68159 -2.23152,21.64206 -0.22083,1.0419 -0.4647,2.08574 -0.71585,3.11587 l -12.00006,54.18945 -0.0841,0.084 c -0.21883,0.5456 -0.33686,1.1446 -0.33686,1.7684 0,2.6257 2.13208,4.8 4.75783,4.8 1.43253,0 2.7074,-0.6819 3.57889,-1.6843 C 244.2159,987.0582 256,957.69083 256,925.61022 256,854.92114 198.68307,797.63747 128,797.61033 h -0.0421 z M 81.136914,938.03146 c -0.87364,-0.0223 -1.75765,0.0522 -2.65271,0.21041 l -9.72638,1.68416 c -3.69785,0.6521 -6.71596,2.7966 -8.63151,5.6843 -9.4053,9.997 -13.55708,31.33978 -9.43157,54.73687 4.1255,23.3969 15.32172,41.9909 27.579,48.1683 2.78757,2.0583 6.32321,3.0521 10.02091,2.4 l 9.76845,-1.7262 c 7.160856,-1.2626 11.915316,-8.0392 10.652686,-15.2001 L 93.684144,948.89455 c -1.1047,-6.26587 -6.43221,-10.7004 -12.54723,-10.86309 z m 93.684156,0 c -6.11503,0.16269 -11.44252,4.59722 -12.54736,10.86309 l -14.98947,85.09465 c -1.26263,7.1609 3.49183,13.9375 10.65269,15.2001 l 9.72625,1.7262 c 3.69772,0.6521 7.27552,-0.3417 10.06309,-2.4 12.25728,-6.1774 23.41145,-24.7714 27.53696,-48.1683 4.12537,-23.39709 0.0158,-44.73987 -9.38953,-54.73687 -1.91555,-2.8877 -4.93366,-5.0322 -8.63151,-5.6843 l -9.76843,-1.68416 c -0.89517,-0.15777 -1.77905,-0.23382 -2.65269,-0.21041 z"
       id="path3029-8"
       inkscape:connector-curvature="0" />
  </g>
</svg>
