<?xml version="1.0" encoding="UTF-8" standalone="no"?>
<!-- Created with Inkscape (http://www.inkscape.org/) -->

<svg
   xmlns:dc="http://purl.org/dc/elements/1.1/"
   xmlns:cc="http://creativecommons.org/ns#"
   xmlns:rdf="http://www.w3.org/1999/02/22-rdf-syntax-ns#"
   xmlns:svg="http://www.w3.org/2000/svg"
   xmlns="http://www.w3.org/2000/svg"
   xmlns:sodipodi="http://sodipodi.sourceforge.net/DTD/sodipodi-0.dtd"
   xmlns:inkscape="http://www.inkscape.org/namespaces/inkscape"
   width="256"
   height="256"
   id="svg4398"
   version="1.1"
   inkscape:version="0.92.3 (2405546, 2018-03-11)"
   sodipodi:docname="pen_256x256.svg"
   inkscape:export-filename="/home/raphael/Pictures/knowte.png"
   inkscape:export-xdpi="96"
   inkscape:export-ydpi="96">
  <defs
     id="defs4400" />
  <sodipodi:namedview
     id="base"
     pagecolor="#ffffff"
     bordercolor="#666666"
     borderopacity="1.0"
     inkscape:pageopacity="0.0"
     inkscape:pageshadow="2"
     inkscape:zoom="1.2954417"
     inkscape:cx="155.03499"
     inkscape:cy="124.89934"
     inkscape:document-units="px"
     inkscape:current-layer="layer1"
     showgrid="false"
     inkscape:window-width="1600"
     inkscape:window-height="836"
     inkscape:window-x="0"
     inkscape:window-y="27"
     inkscape:window-maximized="1" />
  <metadata
     id="metadata4403">
    <rdf:RDF>
      <cc:Work
         rdf:about="">
        <dc:format>image/svg+xml</dc:format>
        <dc:type
           rdf:resource="http://purl.org/dc/dcmitype/StillImage" />
        <dc:title></dc:title>
      </cc:Work>
    </rdf:RDF>
  </metadata>
  <g
     inkscape:label="Layer 1"
     inkscape:groupmode="layer"
     id="layer1"
     transform="translate(0,-796.36218)">
    <path
       style="display:inline;fill:#ffffff;fill-opacity:1;stroke:none;stroke-width:7.47764158"
       d="m 217.85549,796.66969 c -8.39801,-0.12562 -16.28282,2.47376 -22.79055,7.10661 l -8.98543,8.9446 c -0.10241,0.14507 -0.26392,0.22283 -0.36713,0.3679 l -1.1029,1.18446 c -0.11213,0.0748 -0.25795,0.16899 -0.36713,0.24527 l -1.55231,1.55206 54.40254,53.95327 12.4574,-12.41617 c 3.30666,-5.04973 5.50032,-10.95714 6.208,-17.39905 2.37371,-21.6059 -12.98202,-40.9958 -34.26716,-43.33413 -1.21625,-0.1331 -2.43513,-0.18545 -3.63485,-0.20414 z m -58.07843,42.51728 -22.3002,22.05515 L 33.532072,964.901 87.934292,1019.5486 214.26126,893.2628 Z M 9.557382,988.2222 1.7666326e-6,1051.896 0.16225177,1052.059 l 63.87806023,-9.0262 0.0822,-0.082 -54.56611,-54.72924 z"
       id="rect3027-2-23"
       inkscape:connector-curvature="0" />
  </g>
</svg>
